<?xml version="1.0" encoding="UTF-8" standalone="no"?>
<!-- Created with Inkscape (http://www.inkscape.org/) -->

<svg
   width="1000"
   height="430"
   viewBox="0 0 264.58332 113.77084"
   version="1.1"
   id="svg1"
   inkscape:version="1.4 (86a8ad7, 2024-10-11)"
   sodipodi:docname="icon.svg"
   xml:space="preserve"
   inkscape:export-filename="02-vectorised.png"
   inkscape:export-xdpi="192"
   inkscape:export-ydpi="192"
   xmlns:inkscape="http://www.inkscape.org/namespaces/inkscape"
   xmlns:sodipodi="http://sodipodi.sourceforge.net/DTD/sodipodi-0.dtd"
   xmlns:xlink="http://www.w3.org/1999/xlink"
   xmlns="http://www.w3.org/2000/svg"
   xmlns:svg="http://www.w3.org/2000/svg"><sodipodi:namedview
     id="namedview1"
     pagecolor="#ffffff"
     bordercolor="#666666"
     borderopacity="1.0"
     inkscape:showpageshadow="2"
     inkscape:pageopacity="0.0"
     inkscape:pagecheckerboard="0"
     inkscape:deskcolor="#d1d1d1"
     inkscape:document-units="px"
     inkscape:zoom="0.89788694"
     inkscape:cx="694.40814"
     inkscape:cy="359.17662"
     inkscape:window-width="2560"
     inkscape:window-height="1329"
     inkscape:window-x="-8"
     inkscape:window-y="32"
     inkscape:window-maximized="1"
     inkscape:current-layer="layer1" /><defs
     id="defs1"><linearGradient
       id="linearGradient98"
       inkscape:collect="always"><stop
         style="stop-color:#ba4212;stop-opacity:1;"
         offset="0"
         id="stop96" /><stop
         style="stop-color:#bd0f75;stop-opacity:1;"
         offset="0.34554318"
         id="stop97" /><stop
         style="stop-color:#502167;stop-opacity:1;"
         offset="1"
         id="stop98" /></linearGradient><radialGradient
       inkscape:collect="always"
       xlink:href="#linearGradient98"
       id="radialGradient110"
       gradientUnits="userSpaceOnUse"
       gradientTransform="matrix(0.00667035,1.7471198,-1.7786281,0.00679073,-58.356859,-132.10833)"
       cx="-3.668993"
       cy="26.097033"
       fx="-3.668993"
       fy="26.097033"
       r="33.866669" /><radialGradient
       inkscape:collect="always"
       xlink:href="#linearGradient98"
       id="radialGradient115"
       gradientUnits="userSpaceOnUse"
       gradientTransform="matrix(0.00667035,1.7471198,-1.7786281,0.00679073,145.84134,-130.02466)"
       cx="5.9403853"
       cy="18.655304"
       fx="5.9403853"
       fy="18.655304"
       r="33.866669" /><radialGradient
       inkscape:collect="always"
       xlink:href="#linearGradient98"
       id="radialGradient6"
       gradientUnits="userSpaceOnUse"
       gradientTransform="matrix(0.00667035,1.7471198,-1.7786281,0.00679073,40.408394,-130.85813)"
       cx="-3.389941"
       cy="25.82501"
       fx="-3.389941"
       fy="25.82501"
       r="33.866669" /></defs><g
     inkscape:label="Layer 1"
     inkscape:groupmode="layer"
     id="layer1"><text
       xml:space="preserve"
       style="font-size:10.5833px;line-height:6.61458px;font-family:'Henny Penny';-inkscape-font-specification:'Henny Penny';text-align:end;letter-spacing:0px;word-spacing:0px;text-anchor:end;fill:none;stroke:#000000;stroke-width:0.264583px;stroke-linecap:butt;stroke-linejoin:miter;stroke-opacity:1"
       x="62.516506"
       y="20.01012"
       id="text60"><tspan
         sodipodi:role="line"
         id="tspan60"
         style="font-style:normal;font-variant:normal;font-weight:normal;font-stretch:normal;font-family:sans-serif;-inkscape-font-specification:sans-serif;fill:#000000;fill-opacity:1;stroke:none;stroke-width:0.264583px"
         x="62.516506"
         y="20.01012">16x16</tspan></text><g
       id="g16"
       transform="translate(118.75966,174.63219)"
       inkscape:export-filename="g16.png"
       inkscape:export-xdpi="9"
       inkscape:export-ydpi="9"><rect
         style="fill:url(#radialGradient110);fill-opacity:1;stroke:#1f1b3c;stroke-width:1.94264;stroke-linecap:round;stroke-miterlimit:0;stroke-dasharray:none;stroke-opacity:1"
         id="rect104"
         width="65.790695"
         height="65.790695"
         x="-105.29509"
         y="-138.63358"
         ry="9.7662611" /><path
         id="path104"
         style="fill:none;fill-opacity:1;stroke:#ffffff;stroke-width:5.29167;stroke-linecap:round;stroke-miterlimit:0;stroke-dasharray:none;stroke-opacity:1"
         d="m -86.799273,-131.067 c -5.960619,0 -10.792661,5.08657 -10.792692,11.3612 -1e-5,5.40047 3.611373,10.05464 8.638344,11.13264 l 0.526777,-2.58873 c -0.348441,1.32954 -0.822782,5.05439 -0.83405,6.42841 1.6e-5,9.201601 7.491224,16.660955 16.732069,16.660935 9.240791,-6.3e-5 16.731905,-7.459392 16.731923,-16.660935 -1.78e-4,-1.35725 -0.44364,-5.11481 -0.773214,-6.43179 l 0.465937,2.59211 c 5.026972,-1.078 8.638356,-5.73217 8.638339,-11.13264 -2.4e-5,-6.27463 -4.832069,-11.3612 -10.792687,-11.3612 -5.392414,3e-5 -9.95733,4.18982 -10.691992,9.81338 l -0.257475,0.10269 c -1.278855,-0.30681 -2.005378,-0.24253 -3.32083,-0.24364 -1.33312,0.0127 -2.846275,0.40366 -3.437158,0.30897 l -0.141301,-0.16804 c -0.73466,-5.62356 -5.299576,-9.81335 -10.69199,-9.81338 z"
         sodipodi:nodetypes="cscccccccscccccccc" /><path
         style="fill:none;fill-opacity:1;stroke:#ffffff;stroke-width:5.02708;stroke-linecap:round;stroke-miterlimit:0;stroke-dasharray:none;stroke-opacity:1"
         id="path105"
         sodipodi:type="arc"
         sodipodi:cx="-89.084808"
         sodipodi:cy="-87.998611"
         sodipodi:rx="15.507296"
         sodipodi:ry="9.6013317"
         sodipodi:start="3.8323934"
         sodipodi:end="4.6026846"
         sodipodi:arc-type="arc"
         d="m -101.03684,-94.116144 a 15.507296,9.6013317 0 0 1 10.254224,-3.426081"
         sodipodi:open="true" /><path
         style="fill:none;fill-opacity:1;stroke:#ffffff;stroke-width:5.02708;stroke-linecap:round;stroke-miterlimit:0;stroke-dasharray:none;stroke-opacity:1"
         id="path106"
         sodipodi:type="arc"
         sodipodi:cx="-66.517204"
         sodipodi:cy="-73.253326"
         sodipodi:rx="30.668552"
         sodipodi:ry="19.84177"
         sodipodi:start="3.5891183"
         sodipodi:end="4.0844882"
         sodipodi:arc-type="arc"
         d="m -94.165536,-81.839578 a 30.668552,19.84177 0 0 1 9.632175,-7.470948"
         sodipodi:open="true" /><path
         style="fill:none;fill-opacity:1;stroke:#ffffff;stroke-width:5.02708;stroke-linecap:round;stroke-miterlimit:0;stroke-dasharray:none;stroke-opacity:1"
         id="path107"
         sodipodi:type="arc"
         sodipodi:cx="55.549629"
         sodipodi:cy="-88.443924"
         sodipodi:rx="15.507296"
         sodipodi:ry="9.6013317"
         sodipodi:start="3.8323934"
         sodipodi:end="4.6026846"
         sodipodi:arc-type="arc"
         d="m 43.597597,-94.561456 a 15.507296,9.6013317 0 0 1 10.254224,-3.426081"
         sodipodi:open="true"
         transform="scale(-1,1)" /><path
         style="fill:none;fill-opacity:1;stroke:#ffffff;stroke-width:5.02708;stroke-linecap:round;stroke-miterlimit:0;stroke-dasharray:none;stroke-opacity:1"
         id="path108"
         sodipodi:type="arc"
         sodipodi:cx="78.244476"
         sodipodi:cy="-72.680779"
         sodipodi:rx="30.668552"
         sodipodi:ry="19.84177"
         sodipodi:start="3.5891183"
         sodipodi:end="4.0844882"
         sodipodi:arc-type="arc"
         d="m 50.596144,-81.26703 a 30.668552,19.84177 0 0 1 9.632176,-7.470948"
         sodipodi:open="true"
         transform="scale(-1,1)" /><ellipse
         style="fill:#ffffff;fill-opacity:1;stroke:none;stroke-width:3.83569;stroke-linecap:round;stroke-miterlimit:0;stroke-dasharray:none;stroke-opacity:1"
         id="ellipse108"
         cx="-78.729164"
         cy="-111.13047"
         rx="4.7453375"
         ry="4.745338" /><ellipse
         style="fill:#ffffff;fill-opacity:1;stroke:none;stroke-width:3.83569;stroke-linecap:round;stroke-miterlimit:0;stroke-dasharray:none;stroke-opacity:1"
         id="ellipse109"
         cx="-65.444885"
         cy="-111.49571"
         rx="4.7453375"
         ry="4.745338" /><ellipse
         style="fill:#ffffff;fill-opacity:1;stroke:none;stroke-width:3.52402;stroke-linecap:round;stroke-miterlimit:0;stroke-dasharray:none;stroke-opacity:1"
         id="ellipse110"
         cx="-71.699326"
         cy="-98.642532"
         rx="3.7185664"
         ry="5.1115103" /></g><text
       xml:space="preserve"
       style="font-size:10.5833px;line-height:6.61458px;font-family:'Henny Penny';-inkscape-font-specification:'Henny Penny';text-align:end;letter-spacing:0px;word-spacing:0px;text-anchor:end;fill:none;stroke:#000000;stroke-width:0.264583px;stroke-linecap:butt;stroke-linejoin:miter;stroke-opacity:1"
       x="172.40625"
       y="20.025623"
       id="text69"><tspan
         sodipodi:role="line"
         id="tspan69"
         style="font-style:normal;font-variant:normal;font-weight:normal;font-stretch:normal;font-family:sans-serif;-inkscape-font-specification:sans-serif;fill:#000000;fill-opacity:1;stroke:none;stroke-width:0.264583px"
         x="172.40625"
         y="20.025623">24x24 + 32x32</tspan></text><g
       id="g17"
       transform="translate(105.13122,173.38199)"
       inkscape:export-filename="g17.png"
       inkscape:export-xdpi="8.999999"
       inkscape:export-ydpi="8.999999"><rect
         style="fill:url(#radialGradient6);fill-opacity:1;stroke:#1f1b3c;stroke-width:1.94264;stroke-linecap:round;stroke-miterlimit:0;stroke-dasharray:none;stroke-opacity:1"
         id="rect1"
         width="65.790695"
         height="65.790695"
         x="-6.5298381"
         y="-137.38338"
         ry="9.7662611" /><path
         id="path1"
         style="fill:none;fill-opacity:1;stroke:#ffffff;stroke-width:3.37526;stroke-linecap:round;stroke-miterlimit:0;stroke-dasharray:none;stroke-opacity:1"
         d="m 13.484474,-125.13056 c -4.9264932,-1e-5 -8.9202032,4.20408 -8.9202202,9.39009 -1.7e-5,4.46352 2.984811,8.31021 7.1396322,9.20118 l 0.337661,-1.61004 c -0.287983,1.09888 -0.582321,3.64792 -0.591642,4.78356 1.7e-5,7.605176 6.191541,13.770374 13.82915,13.770357 7.637566,-5.2e-5 13.829013,-6.165228 13.82903,-13.770357 -1.53e-4,-1.12177 -0.287786,-3.70821 -0.560196,-4.7967 l 0.306241,1.62318 c 4.154812,-0.89097 7.139648,-4.73766 7.139631,-9.20118 -1.7e-5,-5.18601 -3.993735,-9.3901 -8.920219,-9.39009 -4.45686,1e-5 -8.229783,3.4629 -8.836984,8.11081 l -0.21281,0.0849 c -1.056976,-0.25359 -1.65745,-0.20046 -2.744685,-0.20138 -1.101828,0.0105 -2.352461,0.33363 -2.840828,0.25537 l -0.116785,-0.13888 c -0.607202,-4.64791 -4.380132,-8.1108 -8.836984,-8.11082 z"
         sodipodi:nodetypes="cscccccccscccccccc" /><path
         style="fill:none;fill-opacity:1;stroke:#ffffff;stroke-width:3.37526;stroke-linecap:round;stroke-miterlimit:0;stroke-dasharray:none;stroke-opacity:1"
         id="path2"
         sodipodi:type="arc"
         sodipodi:cx="11.980106"
         sodipodi:cy="-89.354507"
         sodipodi:rx="12.816865"
         sodipodi:ry="7.9355536"
         sodipodi:start="3.8323934"
         sodipodi:end="4.6026846"
         sodipodi:arc-type="arc"
         d="m 2.1016863,-94.410682 a 12.816865,7.9355536 0 0 1 8.4751727,-2.831674"
         sodipodi:open="true" /><path
         style="fill:none;fill-opacity:1;stroke:#ffffff;stroke-width:3.37526;stroke-linecap:round;stroke-miterlimit:0;stroke-dasharray:none;stroke-opacity:1"
         id="path3"
         sodipodi:type="arc"
         sodipodi:cx="29.844595"
         sodipodi:cy="-78.492249"
         sodipodi:rx="25.347729"
         sodipodi:ry="16.399332"
         sodipodi:start="3.5891183"
         sodipodi:end="4.0844882"
         sodipodi:arc-type="arc"
         d="m 6.9930953,-85.588833 a 25.347729,16.399332 0 0 1 7.9610467,-6.17478"
         sodipodi:open="true" /><ellipse
         style="fill:#ffffff;fill-opacity:1;stroke:none;stroke-width:2.55398;stroke-linecap:round;stroke-miterlimit:0;stroke-dasharray:none;stroke-opacity:1"
         id="ellipse5"
         cx="20.041962"
         cy="-108.90668"
         rx="3.1596625"
         ry="3.1596627" /><ellipse
         style="fill:#ffffff;fill-opacity:1;stroke:none;stroke-width:2.55398;stroke-linecap:round;stroke-miterlimit:0;stroke-dasharray:none;stroke-opacity:1"
         id="ellipse6"
         cx="31.441538"
         cy="-109.2041"
         rx="3.1596625"
         ry="3.1596627" /><path
         id="path6"
         style="fill:#ffffff;stroke-width:5.34505;stroke-linecap:round;stroke-miterlimit:0;paint-order:stroke fill markers"
         inkscape:transform-center-x="-114.8372"
         inkscape:transform-center-y="50.65197"
         d="m 22.646303,-101.83809 c 1.568996,-0.87981 4.499728,-0.79083 6.021532,-0.10077 -0.112607,1.51816 -1.167694,4.989248 -2.965297,5.864725 -2.002171,-0.856621 -2.968604,-3.931155 -3.056235,-5.763955 z"
         sodipodi:nodetypes="cccc" /><path
         style="fill:none;fill-opacity:1;stroke:#ffffff;stroke-width:3.37526;stroke-linecap:round;stroke-miterlimit:0;stroke-dasharray:none;stroke-opacity:1"
         id="path7"
         sodipodi:type="arc"
         sodipodi:cx="-38.634243"
         sodipodi:cy="-89.354507"
         sodipodi:rx="12.816865"
         sodipodi:ry="7.9355536"
         sodipodi:start="3.8323934"
         sodipodi:end="4.6026846"
         sodipodi:arc-type="arc"
         d="m -48.512663,-94.410682 a 12.816865,7.9355536 0 0 1 8.475172,-2.831674"
         sodipodi:open="true"
         transform="scale(-1,1)" /><path
         style="fill:none;fill-opacity:1;stroke:#ffffff;stroke-width:3.37526;stroke-linecap:round;stroke-miterlimit:0;stroke-dasharray:none;stroke-opacity:1"
         id="path8"
         sodipodi:type="arc"
         sodipodi:cx="-20.769758"
         sodipodi:cy="-78.492249"
         sodipodi:rx="25.347729"
         sodipodi:ry="16.399332"
         sodipodi:start="3.5891183"
         sodipodi:end="4.0844882"
         sodipodi:arc-type="arc"
         d="m -43.621258,-85.588833 a 25.347729,16.399332 0 0 1 7.961047,-6.17478"
         sodipodi:open="true"
         transform="scale(-1,1)" /></g><g
       id="g18"
       transform="translate(84.835086,172.54852)"><rect
         style="fill:url(#radialGradient115);fill-opacity:1;stroke:#1f1b3c;stroke-width:1.94264;stroke-linecap:round;stroke-miterlimit:0;stroke-dasharray:none;stroke-opacity:1"
         id="rect110"
         width="65.790695"
         height="65.790695"
         x="98.903107"
         y="-136.54991"
         ry="9.7662611" /><path
         id="path110"
         style="fill:none;fill-opacity:1;stroke:#ffffff;stroke-width:2.8313;stroke-linecap:round;stroke-miterlimit:0;stroke-dasharray:none;stroke-opacity:1"
         d="m 118.32855,-124.63246 c -5.38936,-1e-5 -9.7583,4.59907 -9.75832,10.27233 -2e-5,4.88289 3.26525,9.091 7.81044,10.06569 l 0.27283,-1.34477 c -0.31504,1.20212 -0.61862,3.88016 -0.62881,5.12249 2e-5,8.319719 6.8514,14.758131 15.2066,14.758113 8.35516,-5.7e-5 15.12832,-6.744483 15.12834,-15.064143 -1.7e-4,-1.22717 -0.2432,-3.63338 -0.5412,-4.82414 l 0.26338,1.35245 c 4.54518,-0.97469 7.81046,-5.1828 7.81044,-10.06569 -2e-5,-5.67326 -4.36897,-10.27234 -9.75832,-10.27233 -4.8756,2e-5 -9.00301,3.78826 -9.66726,8.87286 l -0.23281,0.0928 c -1.15628,-0.27741 -1.81317,-0.21929 -3.00256,-0.2203 -1.20535,0.0114 -2.57348,0.36497 -3.10774,0.27936 l -0.12775,-0.15193 c -0.66425,-5.0846 -4.79167,-8.87284 -9.66727,-8.87286 z"
         sodipodi:nodetypes="cscccccccscccccccc" /><path
         style="fill:none;fill-opacity:1;stroke:#ffffff;stroke-width:2.8313;stroke-linecap:round;stroke-miterlimit:0;stroke-dasharray:none;stroke-opacity:1"
         id="path111"
         sodipodi:type="arc"
         sodipodi:cx="119.08047"
         sodipodi:cy="-85.461685"
         sodipodi:rx="14.021074"
         sodipodi:ry="8.681138"
         sodipodi:start="3.8323934"
         sodipodi:end="4.6026846"
         sodipodi:arc-type="arc"
         d="m 108.27392,-90.992912 a 14.021074,8.681138 0 0 1 9.27146,-3.097725"
         sodipodi:open="true" /><path
         style="fill:none;fill-opacity:1;stroke:#ffffff;stroke-width:2.8313;stroke-linecap:round;stroke-miterlimit:0;stroke-dasharray:none;stroke-opacity:1"
         id="path112"
         sodipodi:type="arc"
         sodipodi:cx="136.78181"
         sodipodi:cy="-75.408134"
         sodipodi:rx="27.729275"
         sodipodi:ry="17.940132"
         sodipodi:start="3.5891183"
         sodipodi:end="4.0844882"
         sodipodi:arc-type="arc"
         d="m 111.7833,-83.171479 a 27.729275,17.940132 0 0 1 8.70903,-6.754931"
         sodipodi:open="true" /><path
         style="fill:none;fill-opacity:1;stroke:#ffffff;stroke-width:2.8313;stroke-linecap:round;stroke-miterlimit:0;stroke-dasharray:none;stroke-opacity:1"
         id="path113"
         sodipodi:type="arc"
         sodipodi:cx="-143.53474"
         sodipodi:cy="-85.461685"
         sodipodi:rx="14.021074"
         sodipodi:ry="8.681138"
         sodipodi:start="3.8323934"
         sodipodi:end="4.6026846"
         sodipodi:arc-type="arc"
         d="m -154.34129,-90.992912 a 14.021074,8.681138 0 0 1 9.27146,-3.097725"
         sodipodi:open="true"
         transform="scale(-1,1)" /><path
         style="fill:none;fill-opacity:1;stroke:#ffffff;stroke-width:2.8313;stroke-linecap:round;stroke-miterlimit:0;stroke-dasharray:none;stroke-opacity:1"
         id="path114"
         sodipodi:type="arc"
         sodipodi:cx="-125.83338"
         sodipodi:cy="-75.408134"
         sodipodi:rx="27.729275"
         sodipodi:ry="17.940132"
         sodipodi:start="3.5891183"
         sodipodi:end="4.0844882"
         sodipodi:arc-type="arc"
         d="m -150.83189,-83.171479 a 27.729275,17.940132 0 0 1 8.70902,-6.754931"
         sodipodi:open="true"
         transform="scale(-1,1)" /><ellipse
         style="fill:#ffffff;fill-opacity:1;stroke:none;stroke-width:2.8313;stroke-linecap:round;stroke-miterlimit:0;stroke-dasharray:none;stroke-opacity:1"
         id="ellipse114"
         cx="125.68797"
         cy="-106.60555"
         rx="3.4565287"
         ry="3.4565289" /><ellipse
         style="fill:#ffffff;fill-opacity:1;stroke:none;stroke-width:2.8313;stroke-linecap:round;stroke-miterlimit:0;stroke-dasharray:none;stroke-opacity:1"
         id="ellipse115"
         cx="137.22954"
         cy="-106.6522"
         rx="3.4565287"
         ry="3.4565289" /><path
         id="path115"
         style="fill:#ffffff;stroke-width:2.8313;stroke-linecap:round;stroke-miterlimit:0;stroke-dasharray:none;paint-order:stroke fill markers"
         inkscape:transform-center-x="-114.8372"
         inkscape:transform-center-y="50.65197"
         d="m 128.07247,-98.408311 c 1.71641,-0.962473 4.9225,-0.865126 6.58728,-0.110238 -0.12318,1.660803 -1.2774,5.458017 -3.2439,6.41575 -2.19028,-0.937105 -3.24752,-4.300512 -3.34338,-6.305512 z"
         sodipodi:nodetypes="cccc" /></g><text
       xml:space="preserve"
       style="font-size:10.5833px;line-height:6.61458px;font-family:'Henny Penny';-inkscape-font-specification:'Henny Penny';text-align:end;letter-spacing:0px;word-spacing:0px;text-anchor:end;fill:none;stroke:#000000;stroke-width:0.264583px;stroke-linecap:butt;stroke-linejoin:miter;stroke-opacity:1"
       x="233.33789"
       y="20.041126"
       id="text16"><tspan
         sodipodi:role="line"
         id="tspan16"
         style="font-style:normal;font-variant:normal;font-weight:normal;font-stretch:normal;font-family:sans-serif;-inkscape-font-specification:sans-serif;fill:#000000;fill-opacity:1;stroke:none;stroke-width:0.264583px"
         x="233.33789"
         y="20.041126">48x48</tspan></text></g></svg>
